<?xml version="1.0" encoding="UTF-8"?>
<svg id="Layer_1" xmlns="http://www.w3.org/2000/svg" version="1.1" viewBox="0 0 500 500">
  <!-- Generator: Adobe Illustrator 29.5.1, SVG Export Plug-In . SVG Version: 2.1.0 Build 141)  -->
  <defs>
    <style>
      .st0 {
        fill: #e61e26;
        fill-rule: evenodd;
      }
    </style>
  </defs>
  <path class="st0" d="M267.4,329.4s-8-3.2-16.2-12.6v-108.3s-26.1-15.7-28.7-43.5c-2.6-27.8,12.5-64.8,61.6-67.2,0,0,23.2-.9,49.3,21.5,26.1,22.5,32.3,45.5,28.3,63.5-4,18-24.5,29.2-39.3,26.9-14.9-2.3-27.8-8.4-42.1-23.9-14.3-15.5-13.5-32.2-13-36.7,0,0,12.5,6.3,16.3,13.2,0,0-2.7,18.8,10.3,31.6,0,0,26.3,13.4,46.8-13,0,0,17.8-24.7-7.9-57.4,0,0-10.6-15.7-44.2-11.8,0,0-39.9,4.2-49,45.7,0,0-6.9,26.9,11,47.5,0,0,10.6,6.1,11.9,7.4,1.3,1.3,10,7.8,10.2,9.3.2,1.6-5.3-2.3-5.3-2.3v110.1Z"/>
  <path class="st0" d="M411.5,405.8s-.5-1.3.4-1.1c.9.3,13.8,8.4,15.8,12.8,2,4.5,11.4,45.1-32.8,64.6,0,0-34.6,15.9-70.5-13.3,0,0-24.3-17.1-31.3-30,0,0-7.3-6.7-7.2-27.5,0-20.8.5-207.1.5-207.1,0,0,8.3,3.3,16.2,12.8l-.4,206.7s-4.5,21.9,20.9,40.9c0,0,37.2,24,74.1-6.2,0,0,24.5-24.6,14.4-52.7Z"/>
  <path class="st0" d="M124.6,269s21,25.2,56,4.8c0,0,17.7-9.3,28.2-29.5,0,0-28.1-19-33.7-52.6-5.5-33.6,18.5-35.3,26.2-29.1,7.7,6.2,27.9,15.4,32.5,47.7,4.6,32.3-13.3,70.6-53.3,82.9,0,0-24,11.5-56-24.1h0ZM210.1,242c18.3-42.8-1.2-69.6-1.2-69.6-19.8.4-17.9,26.4-17.9,26.4,2.4,27,19.2,43.1,19.2,43.1Z"/>
  <path class="st0" d="M230.2,266.4s-4.6,7-6.2,8.5c-1.5,1.5,7.6,17.3-7.3,46.6-15,29.3-54.9,41.4-85.6,29.4,0,0-20-5-28.3-19-8.3-14.1-12.4-21.1-16-39.5-3.6-18.4-9.1-58.1,34.9-116.6,0,0,26.7-32.7,62.2-59.1,35.5-26.3,43-31.4,51-50.3,8-18.9-5.1-41.4-27.4-52.9,0,0,4,6.7,11.7,12.8,0,0,11.1,17.4-10.5,44.4-21.6,26.9-46.2,25.6-99.8,88.8-53.7,63.2-45.4,135.4-12.5,171.5,0,0,47.7,60,108.2,30.7,0,0,58.8-33.1,25.7-95.2Z"/>
  <path class="st0" d="M105.2,227.3s.8-1.8,2.5-4.5c1-1.6,2.5-3.7,4.7-5.6.8-.7,1.7-1.4,2.8-2,3-1.7,6.7-2.6,10.5-2.2,2.6.3,5.6,1.4,8,2.1h0c3.9,1.1,6.6,1.2,8.7.8,1.2-.2,1.8-.5,1.8-.5,0,0-.7.2-1.8.2-2.2,0-4.4-.5-8-2.1h0c-2.2-1-5.1-2.6-8.1-3.4-4.4-1.1-9.1-.6-13.1,1.5-1.4.7-2.6,1.6-3.6,2.5-2.9,2.6-4.1,5.6-4.6,7.8-.7,3.8.3,5.5.3,5.5h0Z"/>
  <path class="st0" d="M110.4,236.3s.7-1.7,2.7-4.4c.8-1,1.8-2.2,3.1-3.4.7-.6,1.4-1.1,2.2-1.6,2-1.2,4.4-1.9,6.9-1.9,2,0,4.1.5,6.1.7,1.1.1,2.2.1,3.2,0,1.2-.2,2.2-.5,3-1,1.9-1.2,2.3-2.5,2.3-2.5,0,0-.6,1.3-2.4,2.2-.8.4-1.8.6-2.9.7-1,0-1.9,0-3-.3-1.9-.4-3.9-1.1-6.2-1.3-2.8-.2-5.6.4-8,1.8-.9.5-1.8,1.1-2.5,1.8-1.5,1.3-2.5,2.8-3.2,4-1.7,3.4-1.3,5.3-1.3,5.3h0Z"/>
  <path class="st0" d="M110.3,236.2s1.8,2.7,7.6,2.7c2.3,0,4.8-.5,7.1-1.7h0c1.6-.8,3-1.9,4-3.2,1.5-1.9,1.9-4.2,2.1-5.7.2-1.7,0-2.7,0-2.7,0,0,0,1-.4,2.7-.4,1.5-1.1,3.5-2.5,5.1-1,1.1-2.3,1.9-3.8,2.5h0c-2.2.9-4.5,1.3-6.5,1.3-5,0-7.6-.9-7.6-.9Z"/>
  <path class="st0" d="M132.4,223.1c-.1,0-1.6-2.6-5.3-4.2-1.8-.8-4.1-1.2-6.6-.9-.8.1-1.6.3-2.3.6-1.4.5-2.7,1.3-3.7,2.2h0c-2,1.7-3.1,3.8-3.6,5.6-.9,2.8-.5,4.8-.6,4.8,0,0-.7-1.8,0-5,.5-1.9,1.6-4.2,3.7-6h0c1.1-1,2.4-1.8,3.9-2.4.8-.3,1.7-.5,2.5-.6,2.7-.4,5.1.2,7,1.1,4.1,2,4.9,4.9,5,4.8h0Z"/>
  <path class="st0" d="M114.1,229.4c.3,0,.6,1.8,2.5,2.9.9.5,2.2.8,3.4.5.3,0,.6-.2.9-.3.9-.5,1.6-1.2,2-1.9h0c.8-1.4.7-2.9.6-3.8h0c-.2-1-.4-1.6-.3-1.7.1,0,.7.3,1.1,1.4h0c.5,1.1.8,2.9-.1,4.8h0c-.5,1.1-1.4,2-2.6,2.7-.4.2-.8.4-1.2.5-1.8.4-3.4,0-4.5-.9-2.6-2-1.6-4-1.7-4h0Z"/>
  <path class="st0" d="M120.7,225.2c.2,0,.3,0,.5,0,.4.1.8.4,1,.8.2.4.3.8.3,1.3,0,1.1-.2,2.3-.9,3.1-.7.9-1.8,1.4-2.9,1.4-.7,0-1.4-.3-2-.7.2-.2.4-.5.4-.8,0-.5-.4-1-1-1s-.4,0-.6.2c-.1-.3-.2-.6-.2-.9,1.2-1.2,2.6-2.2,4-3,.3-.1.5-.3.8-.4.1,0,.3,0,.5,0h0Z"/>
</svg>